<?xml version="1.0" encoding="UTF-8"?>
<svg id="Layer_2" data-name="Layer 2" xmlns="http://www.w3.org/2000/svg" viewBox="0 0 1944.33 1873.25">
  <defs>
    <style>
      .cls-1 {
        fill: #fdfeff;
      }

      .cls-2 {
        fill: #05452a;
      }

      .cls-3 {
        fill: #fff;
      }

      .cls-4 {
        fill: #020202;
      }

      .cls-5 {
        fill: #010101;
      }
    </style>
  </defs>
  <g id="Layer_1-2" data-name="Layer 1">
    <g>
      <path class="cls-5" d="M1867.48,1542.75L1853.58,1542.65C1849.7,1542.62,1846.18,1540.34,1844.56,1536.8L1764.31,1361.17C1762.51,1357.25,1763.44,1352.61,1766.62,1349.68L1846.55,1275.78C1862.88,1260.68,1872.17,1239.45,1872.16,1217.22L1872.1,813.66C1872.09,792.53,1863.44,772.33,1848.15,757.75L1828.16,738.69L1733.42,653.25C1719.35,640.57,1701.09,633.55,1682.15,633.55L1019.98,633.52C980.18,633.52,947.91,665.79,947.91,705.59L947.91,901.04C947.91,917.61,934.49,931.04,917.92,931.04L479.5,931.24C462.93,931.24,449.49,917.81,449.49,901.24L449.48,355.5C449.48,349.99,453.93,345.52,459.44,345.5L466.43,345.47C510.6,345.28,546.31,309.41,546.3,265.24L546.24,77.34C546.23,34.62,511.59,-0.01,468.87,0L77.73,0.04C34.81,0.05,0.05,34.86,0.1,77.78L0.36,266.42C0.41,309.92,35.56,345.22,79.06,345.47L82.74,345.49C88.16,345.52,92.54,349.93,92.54,355.35L92.52,908.09C92.52,913.6,88.06,918.07,82.55,918.09L77.79,918.1C35.09,918.22,0.54,952.9,0.57,995.6L0.71,1180.33C0.74,1224.38,36.46,1260.06,80.51,1260.06L916.11,1259.92C932.68,1259.91,946.11,1273.34,946.11,1289.91L946.14,1533.38C946.14,1538.83,941.72,1543.25,936.27,1543.25L932.68,1543.25C890.57,1543.25,856.43,1577.39,856.43,1619.5L856.44,1793.22C856.44,1837.42,892.27,1873.25,936.47,1873.25L1289.03,1873.23C1333.13,1873.23,1368.88,1837.47,1368.86,1793.37L1368.78,1595.43C1368.77,1566.58,1345.45,1543.17,1316.6,1543.05L1314.14,1543.04C1310.41,1543.02,1307.39,1539.99,1307.39,1536.26L1307.35,1419.68C1307.35,1414.15,1311.83,1409.67,1317.36,1409.67L1392.75,1409.7C1396.64,1409.7,1400.18,1411.96,1401.82,1415.49L1453.38,1526.71C1456.89,1534.27,1451.66,1543,1443.33,1543.46L1442.14,1543.53C1435.88,1543.88,1430.99,1549.05,1430.99,1555.32L1431.03,1793.15C1431.03,1837.38,1466.9,1873.24,1511.13,1873.24L1864.33,1873.26C1908.51,1873.26,1944.33,1837.44,1944.32,1793.26L1944.3,1620.13C1944.29,1577.61,1909.99,1543.06,1867.48,1542.75ZM1475.2,1109.17L1310.16,1109.15C1304.64,1109.15,1300.17,1104.68,1300.16,1099.16L1300.09,968.55C1300.08,963.03,1304.56,958.55,1310.08,958.55L1469.96,958.51C1472.1,958.51,1474.18,959.2,1475.9,960.47L1500.24,978.45C1502.78,980.33,1504.28,983.29,1504.3,986.44L1504.76,1079.31C1504.79,1085.96,1502.53,1092.42,1498.37,1097.6L1497.74,1098.38C1492.24,1105.2,1483.96,1109.17,1475.2,1109.17Z"/>
      <path class="cls-2" d="M426.99,926.74L428.24,942.58C424.26,948.91,422.04,947.08,418.9,940.86C423.9,928.85,406.82,929.31,405.9,931.23C404.56,934.01,402.55,966.46,413.72,958.54L417.16,964.04L947.92,964.07L945.93,1194.18L946.63,1231.24C945.33,1232.74,944.16,1233.41,943.12,1233.25C940.37,1232.83,938.51,1226.62,937.54,1214.63L79.43,1214.71C59.82,1214.71,43.92,1198.81,43.92,1179.2L43.92,994.17C43.92,974.63,59.73,958.77,79.28,958.71L110.46,958.62C123.55,958.58,134.15,947.95,134.15,934.86L134.11,323.09C134.11,309.99,123.52,299.37,110.42,299.33L79.24,299.25C59.68,299.19,43.85,283.32,43.85,263.76L43.85,76.08C43.85,56.49,59.73,40.61,79.32,40.61L467.59,40.57C487.21,40.57,503.12,56.48,503.1,76.1L503,263.86C502.99,283.44,487.13,299.3,467.56,299.33L431.09,299.39C418.01,299.41,407.4,310.01,407.37,323.09L405.99,864.29C405.98,868.09,406.7,871.87,408.1,875.41L424.98,918.05C426.08,920.83,426.76,923.76,426.99,926.74Z"/>
      <path class="cls-3" d="M407.38,928.51L400.4,925.68L400.4,323.88C400.4,307.33,413.8,293.91,430.35,293.88L467.58,293.82C484.12,293.79,497.52,280.37,497.53,263.83L497.59,76.08C497.6,59.51,484.16,46.07,467.59,46.07L79.29,46.11C62.72,46.11,49.29,59.54,49.3,76.11L49.34,263.77C49.35,280.31,62.74,293.73,79.28,293.76L111.15,293.83C127.7,293.86,141.09,307.28,141.09,323.83L141.14,934.1C141.14,950.64,127.76,964.06,111.22,964.1L79.27,964.2C62.73,964.24,49.35,977.66,49.36,994.2L49.41,1179.2C49.42,1195.76,62.84,1209.19,79.4,1209.19L946.21,1209.59L946.62,1233.31L79.17,1233.31C49.15,1233.31,24.82,1208.99,24.81,1178.97L24.72,994.38C24.71,964.41,48.92,940.06,78.89,939.89L106.89,939.74C112.39,939.7,116.83,935.24,116.83,929.74L116.88,328.63C116.88,323.14,112.47,318.68,106.98,318.63L78.79,318.33C48.9,318.02,24.82,293.7,24.81,263.8L24.74,76.37C24.73,46.37,49.05,22.04,79.05,22.04L467.94,22.06C497.98,22.06,522.32,46.42,522.31,76.46L522.18,263.83C522.17,293.87,497.88,318.27,467.84,318.42L435.24,318.59C429.74,318.62,425.29,323.08,425.29,328.58L424.61,926.64L407.39,928.49Z"/>
      <path class="cls-1" d="M947.91,941.83L947.91,964.06L430.38,964.06C413.79,964.06,400.35,950.6,400.38,934.01L400.4,925.68C408.37,925.65,416.61,924.32,424.6,926.66L424.66,942.16Z"/>
      <path class="cls-3" d="M994.13,714.06L994.86,1558.94C994.88,1575.45,981.54,1588.87,965.03,1588.96L934.96,1589.13C918.46,1589.22,905.13,1602.62,905.12,1619.12L905.1,1791.85C905.09,1808.42,918.53,1821.86,935.1,1821.86L1290.62,1821.81C1307.2,1821.81,1320.63,1808.36,1320.62,1791.78L1320.41,1618.82C1320.4,1602.46,1307.21,1589.18,1290.85,1589.04L1288.39,1589.02C1272.03,1588.88,1258.84,1575.59,1258.83,1559.23L1258.74,1388.07C1258.73,1371.49,1272.16,1358.05,1288.74,1358.05L1410.52,1358.07C1422.18,1358.07,1432.78,1364.83,1437.7,1375.4L1519.88,1551.73C1527.98,1569.11,1515.32,1589.03,1496.15,1589.09L1493.83,1589.1C1485.8,1589.12,1479.31,1595.65,1479.32,1603.68L1479.77,1791.84C1479.81,1808.38,1493.22,1821.77,1509.76,1821.77L1865.68,1821.92C1882.25,1821.92,1895.7,1808.48,1895.69,1791.91L1895.63,1618.84C1895.62,1602.39,1882.39,1589.02,1865.95,1588.85L1835.78,1588.53C1824.15,1588.41,1813.64,1581.58,1808.81,1571L1712.46,1360.17C1707.12,1348.49,1709.81,1334.71,1719.14,1325.89L1814.39,1235.94C1820.39,1230.27,1823.8,1222.37,1823.79,1214.1L1823.43,810.37C1823.42,801.96,1819.89,793.94,1813.69,788.26L1750.86,730.77L1702.41,687.79C1696.88,682.88,1689.73,680.19,1682.33,680.24L1023.95,684.04C1007.44,684.13,994.11,697.55,994.13,714.06ZM1021.19,655.26L1682.21,655.25C1695.95,655.25,1709.2,660.41,1719.32,669.71L1830.62,771.92C1841.78,782.17,1848.13,796.62,1848.13,811.77L1848.04,1214.82C1848.04,1230.01,1841.71,1244.51,1830.56,1254.83L1737.16,1341.34C1733.99,1344.28,1733.06,1348.91,1734.86,1352.84L1829,1558.56C1830.62,1562.11,1834.16,1564.39,1838.06,1564.4L1865.66,1564.49C1895.54,1564.58,1919.71,1588.84,1919.7,1618.72L1919.66,1792.02C1919.65,1821.87,1895.45,1846.06,1865.6,1846.07L1509.8,1846.1C1479.78,1846.11,1455.45,1821.75,1455.48,1791.73L1455.72,1587.21C1455.74,1574.82,1465.68,1564.74,1478.07,1564.55L1479.8,1564.52C1488.88,1564.38,1494.8,1554.93,1490.97,1546.7L1417.43,1388.56C1415.8,1385.04,1412.27,1382.79,1408.38,1382.78L1293.36,1382.6C1287.84,1382.59,1283.35,1387.07,1283.35,1392.59L1283.32,1555.27C1283.32,1560.34,1287.41,1564.45,1292.48,1564.48L1294.94,1564.49C1322.54,1564.63,1344.84,1587.05,1344.85,1614.65L1344.86,1791.85C1344.87,1821.83,1320.56,1846.14,1290.58,1846.14L935.24,1846.14C905.34,1846.14,881.1,1821.9,881.1,1792L881.1,1618.82C881.1,1588.89,905.31,1564.6,935.24,1564.49L960.83,1564.4C966.33,1564.39,970.79,1559.92,970.8,1554.42L972.09,704.29C972.13,677.2,994.1,655.26,1021.19,655.26Z"/>
      <path class="cls-2" d="M1864.71,1581.51L1834.86,1581.51C1825.55,1581.51,1817.1,1576.08,1813.23,1567.61L1717.74,1358.49C1713.51,1349.24,1715.57,1338.33,1722.88,1331.26L1818.04,1239.11C1824.83,1232.53,1828.66,1223.48,1828.64,1214.03L1827.96,810.05C1827.94,800.26,1823.78,790.94,1816.51,784.38L1705.36,684.13C1698.96,678.36,1690.65,675.16,1682.04,675.15L1021.33,674.27C1004.79,674.25,991.36,687.61,991.29,704.15L987.94,1559.76C987.89,1572.81,977.33,1583.38,964.28,1583.45L934.99,1583.61C915.48,1583.71,899.71,1599.55,899.7,1619.06L899.61,1791.83C899.6,1811.43,915.49,1827.33,935.09,1827.33L1290.63,1827.32C1310.25,1827.32,1326.16,1811.41,1326.16,1791.79L1326.16,1617.67C1326.16,1597.7,1309.97,1581.51,1290,1581.51L1287.53,1581.51C1274.74,1581.51,1264.36,1571.14,1264.36,1558.35L1264.25,1388.33C1264.25,1374.98,1275.04,1364.14,1288.39,1364.09L1410.1,1363.63C1419.49,1363.59,1428.06,1368.99,1432.09,1377.48L1477.6,1473.43L1512.58,1550.9C1519.07,1565.25,1508.57,1581.51,1492.82,1581.51L1490.72,1581.51C1481.53,1581.51,1474.07,1588.97,1474.07,1598.16L1474.07,1791.69C1474.07,1811.36,1490.02,1827.31,1509.69,1827.31L1865.74,1827.31C1885.32,1827.31,1901.18,1811.44,1901.18,1791.86L1901.12,1617.91C1901.11,1597.81,1884.81,1581.51,1864.71,1581.51ZM1475.74,1106.43L1309.83,1106.4C1304.31,1106.4,1299.84,1101.93,1299.83,1096.41L1299.76,965.8C1299.75,960.28,1304.23,955.8,1309.75,955.8L1469.96,955.76C1472.1,955.76,1474.18,956.45,1475.9,957.72L1500.24,975.7C1502.78,977.58,1504.28,980.54,1504.3,983.69L1504.76,1076.49C1504.79,1083.18,1502.52,1089.69,1498.32,1094.91L1497.38,1096.07C1492.11,1102.62,1484.15,1106.43,1475.74,1106.43Z"/>
      <path class="cls-3" d="M1540.62,946.23L1498.83,913.52C1493.56,909.4,1487.07,907.16,1480.37,907.15L1281.55,906.94C1264.97,906.92,1251.51,920.37,1251.52,936.95L1251.56,1124.98C1251.57,1141.57,1265.03,1155.01,1281.62,1154.98L1487,1154.61C1502.15,1154.59,1516.59,1148.19,1526.79,1136.99L1538.55,1124.06C1547.65,1114.07,1552.67,1101.02,1552.61,1087.51L1552.13,969.73C1552.09,960.55,1547.85,951.89,1540.62,946.23ZM1475.63,1106.06L1309.83,1106.04C1304.31,1106.04,1299.84,1101.57,1299.83,1096.05L1299.76,965.44C1299.75,959.92,1304.23,955.44,1309.75,955.44L1469.63,955.4C1471.77,955.4,1473.85,956.09,1475.57,957.36L1499.91,975.34C1502.45,977.22,1503.95,980.18,1503.97,983.33L1504.43,1076.27C1504.46,1082.87,1502.22,1089.29,1498.08,1094.43L1496.93,1095.86C1491.74,1102.31,1483.91,1106.06,1475.63,1106.06Z"/>
      <path class="cls-4" d="M1524.52,964.16L1484.17,933.06C1482.42,931.71,1480.27,930.98,1478.06,930.98L1285.92,931.05C1280.4,931.05,1275.92,935.53,1275.93,941.05L1276.07,1120.47C1276.08,1125.99,1280.55,1130.46,1286.07,1130.46L1487.33,1130.5C1496.03,1130.5,1504.3,1126.72,1510,1120.14L1521.51,1106.86C1526.26,1101.38,1528.87,1094.36,1528.84,1087.11L1528.42,972.05C1528.41,968.96,1526.97,966.05,1524.52,964.16ZM1475.49,1106.42L1309.83,1106.4C1304.31,1106.4,1299.84,1101.93,1299.83,1096.41L1299.76,965.8C1299.75,960.28,1304.23,955.8,1309.75,955.8L1469.63,955.76C1471.77,955.76,1473.85,956.45,1475.57,957.72L1499.91,975.7C1502.45,977.58,1503.95,980.54,1503.97,983.69L1504.43,1076.59C1504.46,1083.22,1502.21,1089.66,1498.05,1094.82L1497.02,1096.11C1491.77,1102.63,1483.85,1106.42,1475.49,1106.42Z"/>
    </g>
  </g>
</svg>